<?xml version="1.0" encoding="utf-8"?>
<!-- Generator: Adobe Illustrator 19.0.0, SVG Export Plug-In . SVG Version: 6.00 Build 0)  -->
<svg version="1.1" id="Capa_1" xmlns="http://www.w3.org/2000/svg" xmlns:xlink="http://www.w3.org/1999/xlink" x="0px" y="0px"
	 viewBox="-269 392.9 57 57" style="enable-background:new -269 392.9 57 57;" xml:space="preserve">
<style type="text/css">
	.st0{fill:#EA7D7D;}
</style>
<path class="st0" d="M-213.9,444.8l-13.6-14.1c3.5-4.1,5.4-9.4,5.4-14.8c0-12.7-10.3-23-23-23c-12.7,0-23,10.3-23,23
	c0,12.7,10.3,23,23,23c4.8,0,9.3-1.4,13.2-4.2l13.7,14.2c0.6,0.6,1.3,0.9,2.2,0.9c0.8,0,1.5-0.3,2.1-0.8
	C-212.7,447.9-212.7,446-213.9,444.8z M-245,398.9c9.4,0,17,7.6,17,17c0,9.4-7.6,17-17,17c-9.4,0-17-7.6-17-17
	C-262,406.5-254.4,398.9-245,398.9z"/>
</svg>
